<?xml version="1.0" standalone="no"?>
<!DOCTYPE svg PUBLIC "-//W3C//DTD SVG 1.1//EN" "http://www.w3.org/Graphics/SVG/1.1/DTD/svg11.dtd" >
<!--
2013-9-30: Created.
-->
<svg>
<metadata>
Created by iconfont
</metadata>
<defs>

<font id="iconfont" horiz-adv-x="1024" >
  <font-face
    font-family="iconfont"
    font-weight="500"
    font-stretch="normal"
    units-per-em="1024"
    ascent="896"
    descent="-128"
  />
    <missing-glyph />
    
    <glyph glyph-name="x" unicode="x" horiz-adv-x="1001"
d="M281 543q-27 -1 -53 -1h-83q-18 0 -36.5 -6t-32.5 -18.5t-23 -32t-9 -45.5v-76h912v41q0 16 -0.5 30t-0.5 18q0 13 -5 29t-17 29.5t-31.5 22.5t-49.5 9h-133v-97h-438v97zM955 310v-52q0 -23 0.5 -52t0.5 -58t-10.5 -47.5t-26 -30t-33 -16t-31.5 -4.5q-14 -1 -29.5 -0.5
t-29.5 0.5h-32l-45 128h-439l-44 -128h-29h-34q-20 0 -45 1q-25 0 -41 9.5t-25.5 23t-13.5 29.5t-4 30v167h911zM163 247q-12 0 -21 -8.5t-9 -21.5t9 -21.5t21 -8.5q13 0 22 8.5t9 21.5t-9 21.5t-22 8.5zM316 123q-8 -26 -14 -48q-5 -19 -10.5 -37t-7.5 -25t-3 -15t1 -14.5
t9.5 -10.5t21.5 -4h37h67h81h80h64h36q23 0 34 12t2 38q-5 13 -9.5 30.5t-9.5 34.5q-5 19 -11 39h-368zM336 498v228q0 11 2.5 23t10 21.5t20.5 15.5t34 6h188q31 0 51.5 -14.5t20.5 -52.5v-227h-327z" />
    

    
    <glyph glyph-name="add" unicode="&#58942;" d="M959.56 365.44c-0.125-40.974-33.307-74.156-74.268-74.28l-746.562-0c-40.974 0.125-74.156 33.307-74.28 74.268l-0 37.132c0.125 40.974 33.307 74.156 74.268 74.28l746.552 0c40.974-0.125 74.156-33.307 74.28-74.268l0-37.132zM530.56 831.56c40.974-0.125 74.156-33.307 74.28-74.268l0-746.562c-0.125-40.974-33.307-74.156-74.268-74.28l-37.132-0c-40.974 0.125-74.156 33.307-74.28 74.268l-0 746.552c0.125 40.974 33.307 74.156 74.268 74.28z"  horiz-adv-x="1024" />

    
    <glyph glyph-name="export" unicode="&#58943;" d="M835.55 652.44l-309.41-309.44c-8.365-8.365-19.921-13.539-32.685-13.539-25.529 0-46.224 20.695-46.224 46.224 0 12.764 5.174 24.32 13.539 32.685l299.16 299.18h-155.93c-25 0-45.8 20.69-45.8 46.22-0 0.068-0.001 0.149-0.001 0.23 0 25.405 20.595 46 46 46 0.039 0 0.078-0 0.117-0l231.324 0c0.071 0 0.156 0 0.24 0 50.876 0 92.12-41.244 92.12-92.12 0-0.084-0-0.169-0-0.253l0-231.317c0-0.043 0-0.094 0-0.145 0-25.527-20.694-46.22-46.22-46.22-25.476 0-46.138 20.611-46.22 46.067zM419.56 800v-92.44h-184.56c-0.012 0-0.026 0-0.040 0-25.687 0-46.51-20.823-46.51-46.51 0-0.018 0-0.035 0-0.053l-0-553.997c-0-0.012-0-0.026-0-0.040 0-25.687 20.823-46.51 46.51-46.51 0.014 0 0.028 0 0.042 0l553.998-0c0.012-0 0.026-0 0.040-0 25.687 0 46.51 20.823 46.51 46.51 0 0.014-0 0.028-0 0.042l0 184.558h92.45v-231.34c0-0.006 0-0.013 0-0.020 0-50.921-41.279-92.2-92.2-92.2-0.007 0-0.014 0-0.021 0l-647.559-0c-0.006-0-0.013-0-0.020-0-50.921 0-92.2 41.279-92.2 92.2 0 0.007 0 0.014 0 0.021l-0 647.559c-0 0.006-0 0.013-0 0.020 0 50.921 41.279 92.2 92.2 92.2 0.007 0 0.014-0 0.021-0z"  horiz-adv-x="1024" />

    
    <glyph glyph-name="delete" unicode="&#58944;" d="M901.79 700.57h-233.87c-12.876 74.781-77.226 130.963-154.705 131-80.385-0-144.995-57-157.125-131h-233.88c-20.71 0-36.54-25.47-36.54-46.090s15.84-44.88 36.54-44.88h53.6v-508.2c0-87.33 69-165 156.69-165h359c87.7 0 157.070 77.63 157.070 165v508.2h53.21c20.71 0 36.54 24.26 36.54 44.88s-15.82 46.090-36.53 46.090zM510.79 758.79h2.44c37.76 0 69.43-24.26 79.18-58.22h-162c11.26 34.065 42.811 58.211 80.001 58.211 0.13 0 0.259-0 0.389-0.001zM758.79 104.79c0-45.14-35.42-81-80-81h-333.62c-44.57 0-80 35.88-80 81v504.81h493.65zM399.81 160.83c0.075-0 0.163-0.001 0.252-0.001 24.648 0 44.63 19.982 44.63 44.63 0 0.13-0.001 0.261-0.002 0.391l0 224.15c0 0.050 0 0.11 0 0.17 0 24.759-20.071 44.83-44.83 44.83-0.018 0-0.035-0-0.053-0-0.072 0-0.16 0.001-0.249 0.001-24.648 0-44.63-19.982-44.63-44.63 0-0.13 0.001-0.261 0.002-0.391l-0-224.14c-0-0.050-0-0.11-0-0.17 0-24.759 20.071-44.83 44.83-44.83 0.018 0 0.035 0 0.053 0zM624.19 160.83c0.075-0 0.163-0.001 0.252-0.001 24.648 0 44.63 19.982 44.63 44.63 0 0.13-0.001 0.261-0.002 0.391l0 224.15c0 0.050 0 0.11 0 0.17 0 24.759-20.071 44.83-44.83 44.83-0.018 0-0.035-0-0.053-0-0.072 0-0.16 0.001-0.249 0.001-24.648 0-44.63-19.982-44.63-44.63 0-0.13 0.001-0.261 0.002-0.391l-0-224.14c-0-0.050-0-0.11-0-0.17 0-24.759 20.071-44.83 44.83-44.83 0.018 0 0.035 0 0.053 0z"  horiz-adv-x="1024" />

    
    <glyph glyph-name="forbid" unicode="&#58945;" d="M512 797.77c227.57 0 413.77-186.2 413.77-413.77s-186.2-413.77-413.77-413.77-413.77 186.2-413.77 413.77 186.2 413.77 413.77 413.77zM512 53c182.806 0 331 148.194 331 331s-148.194 331-331 331c-182.806 0-331-148.194-331-331-0.001-0.238-0.001-0.519-0.001-0.801 0-182.364 147.836-330.2 330.2-330.2 0.282 0 0.563 0 0.845 0.001zM334.55 514.42c8.458 10.032 21.032 16.361 35.085 16.361 11.24 0 21.534-4.049 29.503-10.767l280.081-235.013c10.032-8.458 16.361-21.032 16.361-35.085 0-11.24-4.049-21.534-10.767-29.503-8.401-9.963-20.976-16.292-35.029-16.292-11.24 0-21.534 4.049-29.503 10.767l-280.081 235.013c-10.032 8.458-16.361 21.032-16.361 35.085 0 11.24 4.049 21.534 10.767 29.503z"  horiz-adv-x="1024" />

    
    <glyph glyph-name="message" unicode="&#58946;" d="M262 800.22h500c0 0 0 0 0 0 45.79 0 82.92-37.081 83-82.852l0-666.728c-0.142-45.754-37.235-82.798-82.994-82.86l-500.006-0c-0-0-0-0-0-0-45.79 0-82.92 37.081-83 82.852l-0 666.728c0.142 45.754 37.235 82.798 82.994 82.86zM304 717c-0.036 0-0.078 0-0.12 0-22.975 0-41.6-18.625-41.6-41.6 0-0.021 0-0.042 0-0.063l-0-582.657c0.113-22.988 18.729-41.59 41.712-41.68l416.008-0c0.036-0 0.078-0 0.12-0 22.975 0 41.6 18.625 41.6 41.6 0 0.021-0 0.042-0 0.063l0 582.657c-0.113 22.988-18.729 41.59-41.712 41.68zM387.13 633.73c0 0 0 0 0 0 22.986 0 41.62-18.634 41.62-41.62 0-22.986-18.634-41.62-41.62-41.62 0 0 0 0 0 0-22.986 0-41.62 18.634-41.62 41.62 0 0 0 0 0 0 0 22.986 18.634 41.62 41.62 41.62 0 0 0 0 0 0zM512 633.73c-0 0-0 0-0 0 22.986 0 41.62-18.634 41.62-41.62 0-22.986-18.634-41.62-41.62-41.62 0 0 0 0 0 0-22.986 0-41.62 18.634-41.62 41.62 0 0 0 0 0 0 0 22.986 18.634 41.62 41.62 41.62 0 0 0 0 0 0zM636.87 633.73c0 0 0 0 0 0 22.986 0 41.62-18.634 41.62-41.62 0-22.986-18.634-41.62-41.62-41.62 0 0 0 0 0 0-22.986 0-41.62 18.634-41.62 41.62 0 0 0 0 0 0 0 22.986 18.634 41.62 41.62 41.62 0 0 0 0 0 0zM428.76 384h166.48c0 0 0 0 0 0 22.986 0 41.62-18.634 41.62-41.62 0-22.986-18.634-41.62-41.62-41.62 0 0 0 0 0 0l-166.48 0c-22.986-0-41.62 18.634-41.62 41.62 0 0 0 0 0 0 0 22.986 18.634 41.62 41.62 41.62 0 0 0 0 0 0zM387.13 217.51h249.74c0 0 0 0 0 0 22.986 0 41.62-18.634 41.62-41.62 0-22.986-18.634-41.62-41.62-41.62 0 0 0 0 0 0l-249.74 0c-22.986-0-41.62 18.634-41.62 41.62 0 0 0 0 0 0 0 22.986 18.634 41.62 41.62 41.62 0 0 0 0 0 0z"  horiz-adv-x="1024" />

    
    <glyph glyph-name="organization" unicode="&#58947;" d="M390.73 797.77h247.97v-247.97h-247.97v247.97zM184.090 384.49c0 0 0 0 0 0 22.826 0 41.33-18.504 41.33-41.33 0 0 0 0 0 0v-82.66c0-22.826-18.504-41.33-41.33-41.33-0 0-0 0-0 0-22.826 0-41.33 18.504-41.33 41.33 0 0 0 0 0 0v82.66c0 22.826 18.504 41.33 41.33 41.33zM184.090 384.49h661.25c0 0 0 0 0 0 22.826 0 41.33-18.504 41.33-41.33 0 0 0 0 0 0 0-22.826-18.504-41.33-41.33-41.33 0 0 0 0 0 0l-661.25 0c-22.826-0-41.33 18.504-41.33 41.33 0 0 0 0 0 0 0 22.826 18.504 41.33 41.33 41.33zM514.71 508.47c22.805-0.023 41.284-18.512 41.29-41.319l0-206.641c0-22.826-18.504-41.33-41.33-41.33 0 0 0 0 0 0-22.826 0-41.33 18.504-41.33 41.33 0 0 0 0 0 0v206.64c0.006 22.822 18.508 41.32 41.33 41.32 0.014 0 0.028-0 0.042-0zM845.34 384.49c0 0 0 0 0 0 22.826 0 41.33-18.504 41.33-41.33 0 0 0 0 0 0l-0-82.66c0-22.826-18.504-41.33-41.33-41.33 0 0 0 0 0 0-0.003-0-0.006-0-0.010-0-22.826 0-41.33 18.504-41.33 41.33 0 0.004 0 0.007 0 0.011l-0 82.649c0 0 0 0 0 0 0 22.826 18.504 41.33 41.33 41.33 0.004 0 0.007-0 0.011-0zM101.43 177.85h165.31v-165.31h-165.31v165.31zM432.060 177.85h165.31v-165.31h-165.31v165.31zM762.68 177.85h165.31v-165.31h-165.31v165.31z"  horiz-adv-x="1024" />

    
    <glyph glyph-name="search" unicode="&#58948;" d="M677.43 625c-112.21 112.25-294.2 112.25-406.43 0s-112.27-294.25 0-406.47c52.218-53.31 124.944-86.359 205.389-86.359 158.738 0 287.42 128.682 287.42 287.42 0 80.455-33.057 153.189-86.33 205.361zM208.43 156c-68.072 67.863-110.19 161.727-110.19 265.428 0 0.134 0 0.268 0 0.402-0 207.609 168.32 375.979 376 375.979s376-168.32 376-376c-0.014-207.649-168.349-375.976-376-375.976-103.819 0-197.81 42.076-265.85 110.106zM910.66-14.72c-9.286-9.302-22.124-15.056-36.305-15.056s-27.019 5.754-36.304 15.055l-72.551 72.611c-9.284 9.284-15.026 22.109-15.026 36.275 0 28.333 22.968 51.301 51.301 51.301 14.166 0 26.991-5.742 36.275-15.026l72.61-72.55c9.323-9.275 15.093-22.114 15.093-36.3s-5.77-27.025-15.090-36.298z"  horiz-adv-x="1024" />

    
    <glyph glyph-name="start" unicode="&#58949;" d="M512 799c228.22 0 415-186.73 415-415s-186.78-415-415-415-415 186.78-415 415 186.78 415 415 415zM512 52c183.359 0 332 148.641 332 332s-148.641 332-332 332c-183.359 0-332-148.641-332-332-0.001-0.253-0.001-0.552-0.001-0.851 0-182.889 148.261-331.15 331.15-331.15 0.299 0 0.598 0 0.897 0.001zM465.86 546.37c-7.37 3.69-17.13 5.83-25.8 0s-11.060-11.060-11.060-22.11v-287.45c0-11.060 2.85-20.36 11.060-25.8 7.59-5 18.43-3.69 25.8 0 0 0 179.61 130.9 189.81 138.57s22.31 13.32 22.31 31-9.92 23.15-16.91 28.070-195.21 137.72-195.21 137.72z"  horiz-adv-x="1024" />

    
    <glyph glyph-name="strategy" unicode="&#58950;" d="M530.72 107.090c-10.42-5.050-27.090-5.16-37.69 0l-313.52 152.42-45.090-21.8c-20.64-10-20.66-26.67-0.69-36.94l340-175c20.26-10.43 53.53-10.28 73.65 0l342.62 175c20.42 10.43 20.4 26.95-0.14 36.94l-44.78 21.8zM530.72 273.070c-10.42-5.050-27.090-5.16-37.69 0l-313.52 152.43-45.090-21.8c-20.64-10-20.66-26.67-0.69-36.94l340-175c20.26-10.43 53.53-10.28 73.65 0l342.62 174.99c20.42 10.43 20.4 26.95-0.14 36.94l-44.78 21.8zM889.58 569.42l-338.24 169.33c-20.64 10.33-54.24 10.35-74.38 0.36l-342.96-170.050c-20.43-10.13-20.22-26.84-0.19-37l341.19-172.66c20.33-10.29 53.6-10.14 73.65 0l341.47 172.68c20.34 10.29 20.13 26.99-0.54 37.34zM748 540.85l-217.8-110.14c-9.83-5-26.48-5.11-36.57 0l-217.63 110.14c-9.82 5-10.050 13.33 0.090 18.36l218.74 108.47c9.87 4.9 26.52 5 36.57 0l216.67-108.46c9.78-4.9 10.010-13.22-0.070-18.37z"  horiz-adv-x="1024" />

    
    <glyph glyph-name="refresh" unicode="&#58951;" d="M664.54 160.59c-42.079-30.748-94.842-49.198-151.913-49.198-1.328 0-2.653 0.010-3.977 0.030-7.11 0.078-14.38 0.468-21.56 1.118-2.93 0.28-5.87 0.78-8.81 1.15-5.65 0.77-11.31 1.55-16.81 2.64-3.41 0.66-6.74 1.56-10.070 2.35-5.39 1.3-10.76 2.61-16 4.22-2.54 0.81-5 1.73-7.52 2.6-6.070 2.090-12.12 4.25-18 6.78-1.33 0.55-2.61 1.19-3.95 1.81-6.87 3.11-13.68 6.36-20.24 10l-0.91 0.48c-42.504 24.268-76.869 58.402-100.722 99.407 39.962-52.617 39.672-52.277 39.372-51.947q-8.32 8.57-15.87 17.92c-1.050 1.33-2.080 2.75-3.14 4.12-36.335 46.294-58.27 105.393-58.27 169.617 0 0.135 0 0.27 0 0.404l61.66-0.021c1.703 0.004 3.182 0.963 3.93 2.369 0.349 0.645 0.548 1.388 0.548 2.176 0 0.927-0.275 1.791-0.748 2.512l-103.669 159.593c-0.802 1.239-2.176 2.047-3.74 2.047s-2.938-0.808-3.729-2.030l-103.661-159.587c-0.462-0.704-0.737-1.568-0.737-2.495 0-0.789 0.199-1.531 0.549-2.179 0.749-1.405 2.228-2.363 3.931-2.366l61.667 0c-0-0.186-0.001-0.406-0.001-0.627 0-75.678 23.144-145.95 62.741-204.125-0.34 0.452 0.010-0.398 0.54-1.208 4-5.92 8.52-11.39 12.85-17 1.61-2.12 3.13-4.3 4.8-6.38 6.38-7.95 13.16-15.42 20.13-22.72 0.67-0.73 1.28-1.44 1.94-2.090 42.568-43.725 96.45-76.23 156.921-92.792-77.551 31.832-76.801 31.372-75.981 30.942 8.29-4.57 16.81-8.7 25.44-12.61 2.15-0.95 4.25-2 6.44-2.95 7.38-3.14 15-5.9 22.61-8.52 3.61-1.26 7.2-2.55 10.86-3.7 6.68-2 13.5-3.73 20.4-5.4 4.56-1.090 9.1-2.27 13.75-3.18 1.93-0.4 3.75-1 5.65-1.31 6.48-1.18 13-1.84 19.51-2.65 2.34-0.29 4.65-0.69 7-0.95 11.119-1.272 24.011-2.001 37.073-2.008 68.977 0.008 138.367 22.338 197.857 65.128 19 13.68 23.59 40.51 10.3 60-7.505 11.14-20.072 18.37-34.328 18.37-9.067 0-17.451-2.925-24.26-7.882M861.88 384.12c0 0.145 0 0.317 0 0.489 0 75.521-23.032 145.663-62.455 203.784 0.255-0.274-0.135 0.726-0.775 1.636-4.82 7.070-10.090 13.65-15.32 20.25-0.6 0.81-1.17 1.65-1.81 2.44-47.243 58.786-112.298 101.531-186.906 120.128 54.916-18.818 53.546-18.128 52.136-17.498-8.060 3.4-16.32 6.42-24.62 9.26-3 1-5.93 2.13-9 3.050-7.24 2.25-14.58 4.080-22 5.83-4.090 1-8.17 2-12.31 2.87-2 0.4-4 1-6 1.4-5.52 1-11.070 1.4-16.6 2.14-3.84 0.49-7.59 1.1-11.45 1.51-9.3 0.88-18.53 1.26-27.75 1.43-1.69 0-3.32 0.27-5 0.27-0.31 0-0.59-0.090-0.9-0.12-71-0.050-140.27-22.070-199.72-64.81-19-13.64-23.64-40.5-10.34-60 7.506-11.136 20.071-18.363 34.324-18.363 9.069 0 17.455 2.926 24.264 7.885 41.954 30.669 94.71 49.121 151.777 49.121 0.905 0 1.81-0.005 2.713-0.014q11.722-0.079 23.232-1.189c2.37-0.27 4.72-0.64 7.070-0.94 6.32-0.79 12.58-1.71 18.76-3 2.73-0.55 5.42-1.26 8.080-1.88 6.060-1.4 12.11-2.91 18-4.74 1.87-0.61 3.71-1.3 5.58-1.92 6.75-2.27 13.4-4.71 19.94-7.51 0.66-0.29 1.35-0.64 2-0.91 54.543-24.586 98.247-65.167 126.086-115.715-25.716 38.425-25.556 38.165-25.396 37.965 37.637-46.772 60.41-106.891 60.41-172.329 0-0.183-0-0.367-0.001-0.55l-61.67 0.028c-1.703-0.004-3.182-0.963-3.93-2.369-0.349-0.645-0.548-1.388-0.548-2.176 0-0.927 0.275-1.791 0.748-2.512l103.659-159.533c0.802-1.239 2.176-2.047 3.74-2.047s2.938 0.808 3.729 2.030l103.631 159.567c0.462 0.704 0.737 1.568 0.737 2.495 0 0.789-0.199 1.531-0.549 2.179-0.749 1.405-2.228 2.363-3.931 2.366l-61.637-0z"  horiz-adv-x="1024" />

    
    <glyph glyph-name="treestructure" unicode="&#58952;" d="M358.13 496.62c-13.76 0-24.93-10.92-24.93-24.39v-9.23c0-13.47-11.14-24.39-24.93-24.39h-41.9v149.72c0 13.47 11.17 24.39 24.93 24.39h184.7c13.76 0 24.93 10.9 24.93 24.37v138.81c0 13.47-11.17 24.39-24.93 24.39h-306.4c-13.76 0-24.93-10.92-24.93-24.39v-138.82c0-13.47 11.17-24.37 24.93-24.37s24.93-10.92 24.93-24.39v-620.61h71.85v99.39h41.9c13.79 0 24.93-10.92 24.93-24.39v-10.71c0-13.47 11.17-24.39 24.93-24.39h496.26c13.76 0 24.93 10.92 24.93 24.39v140.5c0 13.47-11.17 24.39-24.93 24.39h-496.27c-13.76 0-24.93-10.92-24.93-24.39v-10.75c0-13.47-11.14-24.39-24.93-24.39h-41.9v230.94h41.9c13.79 0 24.93-10.92 24.93-24.39v-9.26c0-13.47 11.17-24.39 24.93-24.39h327.7c13.76 0 24.93 10.92 24.93 24.39v137.58c0 13.47-11.17 24.39-24.93 24.39z"  horiz-adv-x="1024" />

    
    <glyph glyph-name="user" unicode="&#58953;" d="M95.78 634c0.062 45.765 37.106 82.858 82.847 83l666.733 0c45.779-0.080 82.86-37.209 82.86-83 0-0-0-0-0-0l0-500c-0.062-45.765-37.106-82.858-82.847-83l-666.733-0c-45.779 0.080-82.86 37.209-82.86 83 0 0 0 0 0 0zM179 592v-416c0.090-22.984 18.681-41.596 41.649-41.72l582.671-0c0.024-0 0.052-0 0.080-0 22.975 0 41.6 18.625 41.6 41.6 0 0.042-0 0.084-0 0.127l0 415.993c-0.090 22.984-18.681 41.596-41.649 41.72l-582.671 0c-0.024 0-0.052 0-0.080 0-22.975 0-41.6-18.625-41.6-41.6 0-0.042 0-0.084 0-0.127zM553.6 508.86h208.13v-41.62h-208.11zM595.24 384h166.49v-41.62h-166.49zM678.48 259.13h83.24v-41.62h-83.23zM387.13 384c-45.972 0-83.24 37.268-83.24 83.24s37.268 83.24 83.24 83.24c45.972 0 83.24-37.268 83.24-83.24 0-45.972-37.268-83.24-83.24-83.24-0 0-0 0-0 0zM387.13 342.38c77.17-0.004 142.081-52.488 160.988-123.709l-322.228-1.161c19.169 72.38 84.076 124.863 161.242 124.87z"  horiz-adv-x="1024" />

    
    <glyph glyph-name="person" unicode="&#58954;" d="M509.080 322c-97.097 0-175.81 78.713-175.81 175.81 0 97.097 78.713 175.81 175.81 175.81 97.090 0 175.799-78.701 175.81-175.789 0-0.007 0-0.014 0-0.021 0-97.097-78.713-175.81-175.81-175.81-0 0-0 0-0 0zM731.47 54.18l-446.91-1.18c-61.52 1-70.5 46.090-42.57 86.84 0 0 72.54 138.24 267.080 138.24s265.39-134.18 265.39-134.18c34.18-46.65 19.11-89.56-42.99-89.72z"  horiz-adv-x="1024" />

    
    <glyph glyph-name="property" unicode="&#58955;" d="M97.7 241.3c0 50.3 40.4 91.1 91.1 91.1h182.5c50.3 0 91.1-40.4 91.1-91.1v-182.5c0-50.3-40.4-91.1-91.1-91.1h-182.5c-50.3 0-91.1 40.4-91.1 91.1v182.5zM178.7 205.4v-110.7c0-25.8 20.6-46 46-46h110.7c25.8 0 46 20.6 46 46v110.7c0 25.8-20.6 46-46 46h-110.7c-25.8 0-46-20.6-46-46zM97.7 697.2c0 50.3 40.4 91.1 91.1 91.1h182.5c50.3 0 91.1-40.4 91.1-91.1v-182.5c0-50.3-40.4-91.1-91.1-91.1h-182.5c-50.3 0-91.1 40.4-91.1 91.1v182.5zM178.7 661.2v-110.7c0-25.8 20.6-46 46-46h110.7c25.8 0 46 20.6 46 46v110.7c0 25.8-20.6 46-46 46h-110.7c-25.8 0-46-20.6-46-46zM535.5 653.1l118.7 118.7c35.6 35.6 93.3 35.6 128.9 0l118.7-118.7c35.6-35.6 35.6-93.3 0-128.9l-118.7-118.7c-35.6-35.6-93.3-35.6-128.9 0l-118.7 118.7c-35.6 35.6-35.6 93.3 0 128.9zM553.6 241.3c0 50.3 40.4 91.1 91.1 91.1h182.5c50.3 0 91.1-40.4 91.1-91.1v-182.5c0-50.3-40.4-91.1-91.1-91.1h-182.5c-50.3 0-91.1 40.4-91.1 91.1v182.5zM634.6 205.4v-110.7c0-25.8 20.6-46 46-46h110.7c25.8 0 46 20.6 46 46v110.7c0 25.8-20.6 46-46 46h-110.7c-25.8 0-46-20.6-46-46z"  horiz-adv-x="1024" />

    
    <glyph glyph-name="close" unicode="&#58956;" d="M512 518L252 778c-26.4 26.4-69.7 26.4-96.4-0.3l-37.2-37.2c-26.2-26.2-26.8-69.9-0.3-96.4l260-260-260-260c-26.5-26.5-25.9-70.2 0.3-96.4l37.2-37.2c26.7-26.7 70-26.7 96.4-0.3l260 260 260-260c26.4-26.4 69.7-26.4 96.4 0.3l37.2 37.2c26.2 26.2 26.8 69.9 0.3 96.4l-260 260 260 260c26.5 26.5 25.9 70.2-0.3 96.4l-37.2 37.2c-26.7 26.7-70 26.7-96.4 0.3L512 518z"  horiz-adv-x="1024" />

    
    <glyph glyph-name="tubiaozhizuomoban" unicode="&#58979;" d="M0.000074 742.659679c0 56.413941 45.98976 102.144638 101.922585 102.144639h820.142494a102.021275 102.021275 0 0 0 101.922585-102.144639v-717.307022c0-56.413941-45.98976-102.144638-101.922585-102.144638H101.922659A102.021275 102.021275 0 0 0 0.000074 25.352657000000022z m102.391365-51.220355v-461.254593a51.084656 51.084656 0 0 1 51.245027-50.973628h716.739552a50.998301 50.998301 0 0 1 51.245028 50.973628V691.4269879999999a51.084656 51.084656 0 0 1-51.2697 51.03531h-716.739552a50.998301 50.998301 0 0 1-51.208019-51.03531z m102.391364-717.023287a51.195682 51.195682 0 1 1-51.195682 51.195682 51.195682 51.195682 0 0 1 51.208018-51.208018z m204.782729 0a51.195682 51.195682 0 1 1-51.195682 51.195682 51.195682 51.195682 0 0 1 51.232691-51.208018zM321.434941 413.230884h174.423073a69.465756 69.465756 0 0 0-67.109521-52.170251h-124.596721a69.441083 69.441083 0 0 0-69.527437 69.527438v104.340501a69.465756 69.465756 0 0 0 69.502764 69.502765h124.695412a69.354729 69.354729 0 0 0 67.047839-52.170251H321.459614a34.8254 34.8254 0 0 1-34.776055-34.776055v-69.564446a34.850073 34.850073 0 0 1 34.751382-34.689701z m475.317985 17.418868a69.576783 69.576783 0 0 0-69.564446-69.564446h-124.596721a69.367065 69.367065 0 0 0-67.109521 52.108569h174.287374a34.751382 34.751382 0 0 1 34.776055 34.776055v69.527438a34.689701 34.689701 0 0 1-34.751383 34.751382H535.432893a69.342393 69.342393 0 0 0 67.047839 52.108569h124.695412a69.601455 69.601455 0 0 0 69.527437-69.527437z m-405.728866 60.818004a25.992603 25.992603 0 0 0 26.066621 26.066621h197.15889a26.078957 26.078957 0 0 0 26.066621-26.066621v-17.394196a26.004939 26.004939 0 0 0-26.066621-26.066621H417.090681a26.078957 26.078957 0 0 0-26.066621 26.066621z"  horiz-adv-x="1024" />

    
    <glyph glyph-name="settings" unicode="&#58980;" d="M666.7264-72.704c-18.688 0-36.864 7.68-48.5376 20.6336-15.9744 17.5104-66.56 62.976-107.9296 62.976-41.1136 0-92.4672-45.7216-107.2128-61.7472a66.1504 66.1504 0 0 0-72.9088-15.3088l-127.1296 70.9632a60.8256 60.8256 0 0 0-21.504 73.8304c0.0512 0.1536 11.5712 26.7776 11.5712 50.9952a133.5296 133.5296 0 0 1-133.376 133.376H55.296c-21.8624 0-39.0144 18.688-44.544 47.6672C10.3424 312.9856 0 367.9232 0 411.2384c0 43.264 10.2912 98.2016 10.752 100.5568 5.5296 29.2864 23.04 48.128 44.4928 47.616h4.4544a133.5296 133.5296 0 0 1 133.376 133.4272c0 24.2176-11.52 50.7904-11.6224 51.0464a60.2624 60.2624 0 0 0 20.48 72.8576L335.9232 890.624a67.3792 67.3792 0 0 0 74.0352-14.4896c15.7184-16.4352 65.3824-59.2384 105.6256-59.2384 39.8336 0 89.1904 41.984 104.8576 58.112a67.4304 67.4304 0 0 0 72.704 14.4896L822.784 817.664c24.2176-16.896 32.9728-48.2816 21.6064-73.8304-0.0512-0.2048-11.6224-26.7776-11.6224-51.0464a133.5296 133.5296 0 0 1 133.4272-133.376h4.4544c21.4016 0.512 38.912-18.3296 44.544-47.616 0.4096-2.3552 10.7008-57.2928 10.7008-100.5568 0-43.3152-10.2912-98.2528-10.752-100.5568-5.5296-29.3376-23.0912-48.128-44.544-47.616h-4.4032a133.5296 133.5296 0 0 1-133.4272-133.4272c0-24.2176 11.52-50.7904 11.6736-51.0464 11.264-25.5488 2.56-56.8832-20.4288-72.9088l-131.6864-72.96a62.72 62.72 0 0 0-25.6-5.4272z m-22.8352 123.2896l103.936 57.344c-2.5088 5.8368-13.9264 34.0992-13.9264 63.5392a165.2736 165.2736 0 0 0 156.3648 164.864c1.28 6.8608 8.0384 45.7728 8.0384 74.9568s-6.7584 68.096-8.0384 75.008a165.2736 165.2736 0 0 0-156.3648 164.8128c0 29.4912 11.4688 57.7536 13.9264 63.5392l-102.0928 56.7296a8.5504 8.5504 0 0 1-4.3008-1.024 287.6928 287.6928 0 0 0-37.7856-31.6928c-31.4368-22.1184-61.2352-33.3312-88.4224-33.3312-27.4944 0-57.4976 11.4176-89.1392 33.9968a289.024 289.024 0 0 0-37.9904 32.3072 8.192 8.192 0 0 1-3.9424 1.024L278.0672 714.5984c2.56-5.888 13.9264-34.0992 13.9264-63.488 0-88.064-69.376-160.3072-156.416-164.864-1.2288-6.912-8.0384-45.7728-8.0384-74.9568s6.8096-68.096 8.0896-75.008a165.2736 165.2736 0 0 0 156.3648-164.8128c0-29.5424-11.52-57.856-13.9776-63.5904l100.096-55.9616c1.6896 0 3.072 0.512 3.584 0.8704 1.8432 1.9968 16.7936 17.8176 38.2976 33.5872 32.1024 23.552 62.6176 35.4816 90.624 35.4816 28.3648 0 59.0848-12.1856 91.392-36.1472 21.6576-16.0768 36.6592-32.2048 38.5024-34.2528a7.168 7.168 0 0 1 3.3792-0.8704z m-133.2224 183.7056a177.8176 177.8176 0 0 0-177.6128 177.6128 177.8176 177.8176 0 0 0 177.664 177.664 177.8176 177.8176 0 0 0 177.6128-177.664 177.8176 177.8176 0 0 0-177.664-177.664zM430.592 411.904c0-44.1856 35.9424-80.1792 80.128-80.1792 44.2368 0 80.1792 35.9936 80.1792 80.1792 0 44.1856-35.9424 80.128-80.1792 80.128-44.1856 0-80.128-35.9424-80.128-80.128z"  horiz-adv-x="1026" />

    
    <glyph glyph-name="xinjiantongji" unicode="&#58981;" d="M445.044364 556.637091h113.850181v-169.681455h-113.850181zM445.044364 330.379636h113.850181v-56.576h-113.850181zM79.592727 896h844.8c18.222545 0 33.024-14.778182 33.024-33.047273v-329.844363a33.047273 33.047273 0 0 0-33.047272-33.047273H79.592727A33.047273 33.047273 0 0 0 46.545455 533.108364V862.952727C46.545455 881.221818 61.323636 896 79.592727 896z m80.802909-113.105455v-169.704727h683.147637V782.894545H160.395636zM957.416727 47.569455h-113.873454v-56.552728h113.873454v-80.104727a33.047273 33.047273 0 0 0-33.047272-33.024h-80.826182v113.105455H786.618182v-113.105455h-113.850182v113.105455h-56.925091v-113.105455h-227.723636v113.105455h-56.925091v-113.105455H217.344v113.105455H160.395636v-113.105455H79.592727A33.047273 33.047273 0 0 0 46.545455-89.064727v80.058182h796.997818V273.850182h80.826182c18.245818 0 33.047273-14.801455 33.047272-33.047273v-80.081454h-113.873454v-56.552728h113.873454v-56.552727zM46.545455 47.569455v56.552727h113.850181v-56.552727H46.545455z m0 113.128727v80.081454c0 18.245818 14.778182 33.047273 33.047272 33.047273h80.802909v-113.128727H46.545455z m341.573818 113.105454h227.723636v-113.105454h-227.723636v113.105454z m-56.925091 0v-113.105454H217.344v113.105454h113.850182z m341.573818 0H786.618182v-113.105454h-113.850182v113.105454z"  horiz-adv-x="1024" />

    
    <glyph glyph-name="xinjianxiaji" unicode="&#58982;" d="M1024 42.666667v113.785904h-113.785905V213.333333H1024v56.880762a56.880762 56.880762 0 0 1-56.880762 56.905143h-56.905143V-128h56.905143A56.880762 56.880762 0 0 1 1024-71.119238v56.905143h-113.785905V42.666667H1024z m-625.785905 0v113.785904H512V213.333333h-113.785905v56.880762a56.880762 56.880762 0 0 0 56.905143 56.905143H512v-341.333333h170.666667V-128h-113.785905v113.785905H512V-128h-56.880762a56.880762 56.880762 0 0 0-56.905143 56.880762v56.905143H512V42.666667h-113.785905z m170.666667 170.666666v113.785905H682.666667V213.333333h-113.785905z m170.666667 0v113.785905H853.333333V213.333333h-113.785904z m0-341.333333H853.333333v113.785905h-113.785904V-128z m-512 568.880762v-284.428191H113.785905V440.880762H56.880762A56.880762 56.880762 0 0 0 0 497.785905v341.333333A56.880762 56.880762 0 0 0 56.880762 896h739.571809A56.880762 56.880762 0 0 0 853.333333 839.119238v-341.333333a56.880762 56.880762 0 0 0-56.880762-56.905143H227.547429zM113.785905 156.452571h113.761524V42.666667a113.785905 113.785905 0 0 0-113.761524 113.785904z m113.761524 0h105.691428V42.666667H227.547429v113.785904zM113.785905 782.214095V554.666667h625.761524V782.214095H113.785905z"  horiz-adv-x="1024" />

    
    <glyph glyph-name="bianji" unicode="&#58983;" d="M938.179048 696.07619a49.176381 49.176381 0 0 1 0 69.729524L822.345143 881.517714a49.249524 49.249524 0 0 1-69.729524 0l-97.03619-96.987428 185.539047-185.441524L938.179048 696.07619z m-146.432-146.334476l-494.811429-494.445714H111.37219v185.441524L606.159238 735.012571l185.58781-185.270857zM63.975619-0.097524h896.073143a63.951238 63.951238 0 1 0 0-127.902476H63.951238a63.951238 63.951238 0 1 0 0 127.902476z"  horiz-adv-x="1024" />

    
    <glyph glyph-name="shanchu" unicode="&#58984;" d="M447.395524 831.588748H124.924964a63.972583 63.972583 0 1 1 0-127.945167h773.763625a63.972583 63.972583 0 1 1 0 127.945167H576.218029a64.411252 64.411252 0 0 1-128.822505 0zM125.363633 639.670998h772.886287v-639.725832c0-70.674473-57.270694-127.945166-127.945166-127.945166H253.3088a127.945166 127.945166 0 0 0-127.945167 127.945166V639.670998z m128.822505 0v-575.753248a63.972583 63.972583 0 0 1 63.972583-63.972584h387.296111a63.972583 63.972583 0 0 1 63.972583 63.972584V639.670998H254.210508z m128.798134-63.972583a64.411252 64.411252 0 0 0 64.411252-64.411252v-319.009948a64.411252 64.411252 0 0 0-128.822504 0v319.009948a64.411252 64.411252 0 0 0 64.411252 64.411252z m257.645009 0a64.411252 64.411252 0 0 0 64.411253-64.411252v-319.009948a64.411252 64.411252 0 1 0-128.822505 0v319.009948a64.411252 64.411252 0 0 0 64.411252 64.411252z"  horiz-adv-x="1024" />

    
    <glyph glyph-name="yingyong" unicode="&#58985;" d="M927.9 648.5c-1.2 10.2-8.3 19.1-18.7 22L524.1 797.6c-5.7 3.3-12.7 4.4-19.7 2.6l-390-130.3c-10.2-2.8-17.6-11.2-19.2-21-0.3-1.4-0.6-2.9-0.6-4.4v-468.9c0-12.6 9.1-23.1 21-25.5L497-28.5c2.3-1.6 5-2.8 7.7-3.6l0.2-0.1c1.5-0.4 3.1-0.7 4.6-0.8 0.4 0 0.8-0.1 1.1-0.1h2.3c1.9 0.1 3.8 0.4 5.7 0.9l0.2 0.1c2.7 0.8 5.3 2 7.5 3.5l378.8 177.2c13 1.5 22.8 12.5 22.8 25.9V644.9c0.1 1.2 0.2 2.4 0 3.6zM450.7 105.4L193.8 222.5V541l256.9-92.8v-342.8z m126.4 342.8L834 541v-322.5L577.1 93.4V448.2zM513 546.1l-224.3 75.2L512.8 696l224.5-74.2L513 546.1z"  horiz-adv-x="1024" />

    
    <glyph glyph-name="rizhi" unicode="&#58886;" d="M857.6-76.4928H166.4A115.3024 115.3024 0 0 0 51.2 38.656V644.096a115.3024 115.3024 0 0 0 115.2 115.2h56.1152a88.832 88.832 0 0 0 177.408 0h224.1536a88.832 88.832 0 0 0 177.408 0h56.1152c63.488 0 115.2-51.712 115.2-115.2v-605.44c0-63.488-51.712-115.2-115.2-115.2zM915.2 644.096c0 31.744-25.856 57.6-57.6 57.6h-108.5952V759.2448h-0.3584a36.096 36.096 0 0 1-35.84 32.9216 36.096 36.096 0 0 1-35.8912-32.9216h-0.3584v-57.5488H347.4432V759.2448h-0.3584a36.096 36.096 0 0 1-35.84 32.9216 36.096 36.096 0 0 1-35.8912-32.9216H274.944v-57.5488H166.4c-31.744 0-57.6-25.856-57.6-57.6v-108.6976h806.4V644.096z m0-174.5408H108.8v-430.8992c0-31.744 25.856-57.6 57.6-57.6h691.2c31.744 0 57.6 25.856 57.6 57.6V469.504zM637.0304 647.3216h164.608c18.176 0 32.9216-13.7728 32.9216-30.72 0-16.9472-14.7456-30.72-32.9216-30.72h-164.608c-18.176 0-32.8704 13.7728-32.8704 30.72 0 16.9472 14.6944 30.72 32.8704 30.72z m138.24-367.2064H235.52a32.9216 32.9216 0 0 0 0 65.8432h539.8016a32.9216 32.9216 0 0 0 0-65.8432zM235.6736 179.2h368.64a32.9216 32.9216 0 0 0 0-65.8432h-368.64a32.9216 32.9216 0 0 0 0 65.8432z"  horiz-adv-x="1024" />

    
    <glyph glyph-name="tishi" unicode="&#58887;" d="M509.056 222.656c-19.2 0-38.208-7.936-51.84-21.44a74.176 74.176 0 0 1-21.44-51.712c0-19.2 7.936-38.272 21.44-51.84 13.504-13.44 32.64-21.376 51.84-21.376 19.2 0 38.272 7.872 51.84 21.44a74.24 74.24 0 0 1 21.568 51.776 73.856 73.856 0 0 1-21.504 51.712 74.24 74.24 0 0 1-51.84 21.44zM512 896C229.76 896 0 666.304 0 384s229.76-512 512-512c282.304 0 512 229.696 512 512s-229.696 512-512 512z m0.064-950.848a439.232 439.232 0 0 0-438.72 438.784c0 242.112 196.864 438.912 438.72 438.912 241.92 0 438.784-196.8 438.784-438.912a439.296 439.296 0 0 0-438.784-438.784zM508.416 683.968c-49.536 0-89.472-15.168-119.936-45.376a166.912 166.912 0 0 1-49.152-110.4c-0.96-38.4 80.128-30.464 83.2-11.52 3.072 20.096 16.384 52.608 31.936 67.328 15.488 14.72 34.816 22.08 57.856 22.08 23.872 0 42.88-7.104 56.96-21.248 14.08-14.08 21.184-31.04 21.184-50.816 0.064-14.016-4.096-27.712-11.904-39.296-5.184-7.424-20.992-23.296-47.36-47.552-26.432-24.192-44.16-45.952-52.928-65.28-8.768-19.392-13.248-44.032-13.248-74.112l0.384-24.32h82.304c-0.448 28.16 1.664 47.616 6.272 58.496 4.608 10.88 16.448 25.28 35.52 43.2 36.864 34.56 61.056 61.952 72.32 81.984 11.264 20.096 16.896 41.408 16.896 63.872 0 40.704-15.36 76.352-46.208 107.008-30.72 30.592-72.064 45.952-124.096 45.952z"  horiz-adv-x="1024" />

    
    <glyph glyph-name="rizhi1" unicode="&#58894;" d="M892.416-126.3616h-768c-70.5536 0-123.392 50.688-123.392 121.344V667.904c0 70.6048 52.8384 128 123.392 128H186.88A98.7136 98.7136 0 0 0 285.3888 890.9824c53.248 0 96.5632-42.24 98.5088-95.0784h249.088A98.7136 98.7136 0 0 0 731.5456 890.9824c53.248 0 96.5632-42.24 98.56-95.0784h62.3616c70.5536 0 128-57.3952 128-128v-672.9216c0-70.656-57.4464-121.344-128-121.344z m35.9936 776.192c0 33.0752-26.9312 60.0064-60.0064 60.0064h-103.424V768.6144c-2.0992 19.2-12.288 34.304-31.8976 34.304-19.6608 0-30.3616-15.104-32.1024-34.304l-0.3584-58.7776H318.3616V768.5632c-2.1504 19.2512-12.7488 34.304-32.4096 34.304s-30.3616-15.0528-32.1024-34.304l-0.3072-58.7264H148.48c-33.0752 0-55.1936-26.9312-55.1936-60.0064V536.576h835.1232V649.8304z m0-206.6432H93.2864V25.6c0-33.0752 22.1184-60.0064 55.1936-60.0064H868.352c33.0752 0 60.0064 26.9312 60.0064 60.0064V443.1872zM633.1392 642.3552h155.4432c17.2032 0 31.1296-13.0048 31.1296-29.0304 0-16.0256-13.9264-28.9792-31.0784-28.9792h-155.4944c-17.152 0-31.0272 12.9536-31.0272 28.9792 0 16.0256 13.8752 29.0304 31.0272 29.0304zM762.0608 280.4736H252.2112a31.0784 31.0784 0 0 0 0 62.1568h509.8496a31.0784 31.0784 0 1 0 0-62.1568zM252.416 185.1392h348.16a31.0784 31.0784 0 1 0 0-62.1568h-348.16a31.0784 31.0784 0 0 0 0 62.1568z"  horiz-adv-x="1024" />

    
    <glyph glyph-name="quanxianguanli" unicode="&#58900;" d="M460.799795 272.8446a197.222301 197.222301 0 0 0 51.046375 387.583806A197.119901 197.119901 0 0 0 563.199744 272.8958v-124.518338a51.199974 51.199974 0 1 0-102.399949 0v124.415938z m-18.94399-380.87661C324.249463-44.032042 51.2 124.825474 51.2 313.446179V700.159586A99.37915 99.37915 0 0 0 126.975962 792.06354L446.156603 882.533895A166.246317 166.246317 0 0 0 511.99977 895.999488c22.681589 0 45.107177-4.607998 65.843167-13.567993l319.69264-90.419155a98.867151 98.867151 0 0 0 74.854362-86.681557L972.799539 378.930947v-65.382368c0-192.307104-276.479862-360.65262-394.956602-424.140588-19.96799-11.315194-42.700779-17.305591-65.843167-17.407991-24.883188 0-49.254375 6.911997-70.143965 19.96799zM153.804749 633.599619v-294.092653c0-155.340722 210.739095-294.553453 303.001448-347.238226a101.427149 101.427149 0 0 1 106.956747-2.457599c93.286353 52.223974 305.407847 190.668705 305.407847 349.337425V637.542017a81.305559 81.305559 0 0 1-51.763174 69.119966l-7.219196 2.303999-246.271877 74.598362A124.569538 124.569538 0 0 1 460.287795 783.871544L213.503919 709.529181l-7.935996-2.355199A80.58876 80.58876 0 0 1 154.163149 637.951617l-0.3072-4.300798zM511.99977 356.454158c60.56957 0 109.721545 47.769576 109.721545 106.649546 0 58.931171-49.151975 106.700747-109.721545 106.700747-60.56957 0-109.721545-47.769576-109.721546-106.700747 0-58.879971 49.151975-106.649547 109.721546-106.649546z"  horiz-adv-x="1024" />

    


  </font>
</defs>
</svg>
